HIERARCHY
ROOT Pelvis
{
	OFFSET 0.000000 0.000000 0.000000
	CHANNELS 6 Xposition Yposition Zposition Xrotation Yrotation Zrotation
	JOINT LeftUpLeg_virtual
	{
		OFFSET 0.000000 0.000000 0.000000
		CHANNELS 3 Xrotation Yrotation Zrotation
		JOINT LeftUpLeg
		{
			OFFSET 8.479700 -4.795502 -0.379100
			CHANNELS 3 Xrotation Yrotation Zrotation
			JOINT LeftLeg
			{
				OFFSET 0.024144 -32.555107 0.112900
				CHANNELS 3 Xrotation Yrotation Zrotation
				JOINT LeftFoot
				{
					OFFSET -0.024144 -32.638630 -3.012600
					CHANNELS 3 Xrotation Yrotation Zrotation
					JOINT LeftToeBase
					{
						OFFSET 0.970200 -13.225400 11.864200
						CHANNELS 3 Xrotation Yrotation Zrotation
						End Site
						{
							OFFSET 0 0 0
						}
					}
				}
			}
		}
	}
	JOINT RightUpLeg_virtual
	{
		OFFSET 0.000000 0.000000 0.000000
		CHANNELS 3 Xrotation Yrotation Zrotation
		JOINT RightUpLeg
		{
			OFFSET -8.479700 -4.795502 -0.379100
			CHANNELS 3 Xrotation Yrotation Zrotation
			JOINT RightLeg
			{
				OFFSET -0.023144 -32.555092 0.112900
				CHANNELS 3 Xrotation Yrotation Zrotation
				JOINT RightFoot
				{
					OFFSET 0.023144 -32.638641 -3.012700
					CHANNELS 3 Xrotation Yrotation Zrotation
					JOINT RightToeBase
					{
						OFFSET -0.970200 -13.225400 11.864200
						CHANNELS 3 Xrotation Yrotation Zrotation
						End Site
						{
							OFFSET 0 0 0
						}
					}
				}
			}
		}
	}
	JOINT Hips_virtual
	{
		OFFSET 0.000000 0.000000 0.000000
		CHANNELS 3 Xrotation Yrotation Zrotation
		JOINT Hips
		{
			OFFSET -0.000000 -0.000000 -0.000000
			CHANNELS 3 Xrotation Yrotation Zrotation
			JOINT Spine
			{
				OFFSET 0.000000 7.722000 1.166200
				CHANNELS 3 Xrotation Yrotation Zrotation
				JOINT Spine1
				{
					OFFSET 0.000000 12.024101 0.248800
					CHANNELS 3 Xrotation Yrotation Zrotation
					JOINT Spine2
					{
						OFFSET 0.000000 11.502998 -0.491200
						CHANNELS 3 Xrotation Yrotation Zrotation
						JOINT Neck_virtual
						{
							OFFSET 0.000000 0.000000 0.000000
							CHANNELS 3 Xrotation Yrotation Zrotation
							JOINT Neck
							{
								OFFSET 0.000000 18.430702 -3.123100
								CHANNELS 3 Xrotation Yrotation Zrotation
								JOINT Head
								{
									OFFSET 0.000000 9.051102 1.034000
									CHANNELS 3 Xrotation Yrotation Zrotation
									End Site
									{
										OFFSET 0 0 0
									}
								}
							}
						}
						JOINT LeftShoulder_virtual
						{
							OFFSET 0.000000 0.000000 0.000000
							CHANNELS 3 Xrotation Yrotation Zrotation
							JOINT LeftShoulder
							{
								OFFSET 6.197800 13.665199 -4.064700
								CHANNELS 3 Xrotation Yrotation Zrotation
								JOINT LeftArm
								{
									OFFSET 7.778100 -0.187103 -1.709300
									CHANNELS 3 Xrotation Yrotation Zrotation
									JOINT LeftForeArm
									{
										OFFSET 22.049376 0.000000 0.000000
										CHANNELS 3 Xrotation Yrotation Zrotation
										JOINT LeftHand
										{
											OFFSET 23.009392 0.000000 0.000000
											CHANNELS 3 Xrotation Yrotation Zrotation
											End Site
											{
												OFFSET 0 0 0
											}
										}
									}
								}
							}
						}
						JOINT RightShoulder_virtual
						{
							OFFSET 0.000000 0.000000 0.000000
							CHANNELS 3 Xrotation Yrotation Zrotation
							JOINT RightShoulder
							{
								OFFSET -6.197800 13.665199 -4.064700
								CHANNELS 3 Xrotation Yrotation Zrotation
								JOINT RightArm
								{
									OFFSET -7.778100 -0.187103 -1.709300
									CHANNELS 3 Xrotation Yrotation Zrotation
									JOINT RightForeArm
									{
										OFFSET -22.049376 0.000000 0.000000
										CHANNELS 3 Xrotation Yrotation Zrotation
										JOINT RightHand
										{
											OFFSET -23.009392 0.000000 0.000000
											CHANNELS 3 Xrotation Yrotation Zrotation
											End Site
											{
												OFFSET 0 0 0
											}
										}
									}
								}
							}
						}
					}
				}
			}
		}
	}
}
MOTION
Frames: 10
Frame Time: 0.03333333
-13.195953 11.898800 -65.741043 0.000000 0.000000 0.000000 -87.112069 26.374765 5.786796 -61.755224 8.690296 35.309418 68.859877 9.915445 -2.395406 18.281534 9.071960 -9.677593 0.000000 0.000000 0.000000 -87.112069 26.374765 5.786796 -55.986357 5.547462 -37.205529 109.645771 -2.654885 5.387329 27.171742 3.196621 28.523544 0.000000 0.000000 0.000000 -87.112069 26.374765 5.786796 -0.000001 -0.000001 -0.000000 54.136148 10.758125 -3.131850 20.535749 3.211058 0.186201 0.000000 0.000000 0.000000 20.612229 2.862299 0.333963 6.354671 0.273875 -2.216759 0.000000 0.000000 0.000000 20.612229 2.862299 0.333963 0.690093 -7.698573 -13.129605 -23.121925 -24.042640 -24.824249 0.000079 -63.058820 0.000090 0.000000 0.000000 0.000000 20.612229 2.862299 0.333963 0.136774 13.961787 14.788463 -26.720445 -13.516587 33.282112 -0.000009 41.763048 0.000009 0.000000 0.000000 0.000000 
-13.010168 11.730873 -66.887360 0.000000 0.000000 0.000000 -91.510874 25.907240 6.164999 -57.847351 8.130527 34.922354 66.795405 9.492033 -0.959352 19.663377 8.820659 -7.517059 0.000000 0.000000 0.000000 -91.510874 25.907240 6.164999 -51.380470 5.333541 -33.682917 107.671765 -3.230271 3.056903 26.578038 2.440691 28.234935 0.000000 0.000000 0.000000 -91.510874 25.907240 6.164999 0.000000 0.000002 0.000000 54.023586 11.796932 -2.265434 20.987664 3.430235 0.332315 0.000000 0.000000 0.000000 21.083086 3.010461 0.480114 6.011288 0.280396 -2.502189 0.000000 0.000000 0.000000 21.083086 3.010461 0.480114 0.654634 -7.640291 -13.060561 -19.361652 -24.125229 -21.499030 -0.000024 -64.350832 -0.000042 0.000000 0.000000 0.000000 21.083086 3.010461 0.480114 0.281185 14.030639 13.544993 -21.025797 -14.046612 33.984364 0.000001 42.419709 -0.000001 0.000000 0.000000 0.000000 
-12.791507 11.644806 -68.004959 0.000000 0.000000 0.000000 -96.133943 25.401960 6.733042 -53.497108 7.881651 34.993767 64.635234 8.842900 0.364666 21.134236 7.860801 -6.496633 0.000000 0.000000 0.000000 -96.133943 25.401960 6.733042 -46.506673 5.361420 -30.374575 106.135314 -4.397434 0.620280 25.629807 1.683114 27.798443 0.000000 0.000000 0.000000 -96.133943 25.401960 6.733042 -0.000000 -0.000003 -0.000001 53.877389 12.485114 -1.327099 21.302506 3.531561 0.486735 0.000000 0.000000 0.000000 21.413452 3.045614 0.639502 5.772043 0.276188 -2.724581 0.000000 0.000000 0.000000 21.413452 3.045614 0.639502 0.618660 -7.705183 -13.035402 -16.051276 -24.091788 -18.542294 0.000019 -64.438935 0.000031 0.000000 0.000000 0.000000 21.413452 3.045614 0.639502 0.368021 14.232618 12.568259 -15.163278 -12.817753 34.004455 -0.000005 41.556913 0.000001 0.000000 0.000000 0.000000 
-12.579495 11.663845 -69.062531 0.000000 0.000000 0.000000 -100.924726 24.987214 7.410215 -48.950313 7.799368 35.612354 62.642575 8.209039 1.592483 22.087759 6.347347 -6.667678 0.000000 0.000000 0.000000 -100.924726 24.987214 7.410215 -41.387473 5.418331 -27.528089 104.843889 -6.162363 -1.722633 24.696403 1.083307 27.308022 0.000000 0.000000 0.000000 -100.924726 24.987214 7.410215 0.000000 0.000001 0.000000 53.520614 12.750136 -0.315119 21.392871 3.485086 0.638490 0.000000 0.000000 0.000000 21.512839 2.946443 0.804810 5.701514 0.269787 -2.859060 0.000000 0.000000 0.000000 21.512839 2.946443 0.804810 0.583244 -7.873918 -13.009938 -13.224163 -24.020107 -16.352815 0.000007 -63.453728 0.000011 0.000000 0.000000 0.000000 21.512839 2.946443 0.804810 0.413006 14.399152 11.899819 -8.989448 -9.774901 33.560179 0.000001 39.122227 -0.000005 0.000000 0.000000 0.000000 
-12.407733 11.794991 -70.038940 0.000000 0.000000 0.000000 -105.746526 24.753990 8.084617 -44.543502 7.756003 36.803884 60.938852 7.669257 2.749059 22.251114 4.577162 -7.713355 0.000000 0.000000 0.000000 -105.746526 24.753990 8.084617 -36.265368 5.368424 -25.206634 103.695112 -8.187524 -3.807836 24.009375 0.697158 26.535637 0.000000 0.000000 0.000000 -105.746526 24.753990 8.084617 0.000002 -0.000002 0.000000 52.784914 12.573116 0.726109 21.192026 3.289845 0.753230 0.000000 0.000000 0.000000 21.312762 2.716127 0.941971 5.822416 0.265666 -2.893481 0.000000 0.000000 0.000000 21.312762 2.716127 0.941971 0.548375 -8.140330 -12.910349 -10.892215 -23.869744 -15.235350 -0.000014 -61.758318 -0.000003 0.000000 0.000000 0.000000 21.312762 2.716127 0.941971 0.431948 14.333475 11.516034 -2.584129 -5.159816 32.975925 -0.000001 35.399504 -0.000001 0.000000 0.000000 0.000000 
-12.304721 12.032768 -70.927704 0.000000 0.000000 0.000000 -110.391648 24.737414 8.660817 -40.616987 7.664115 38.531481 59.558471 7.188669 3.835887 21.581858 2.890286 -9.200762 0.000000 0.000000 0.000000 -110.391648 24.737414 8.660817 -31.479416 5.186437 -23.354626 102.742014 -9.911187 -5.522721 23.550931 0.534361 25.313371 0.000000 0.000000 0.000000 -110.391648 24.737414 8.660817 0.000000 -0.000001 0.000000 51.543824 11.960687 1.691783 20.665122 2.965685 0.775679 0.000000 0.000000 0.000000 20.778528 2.372926 0.992810 6.109899 0.264466 -2.834282 0.000000 0.000000 0.000000 20.778528 2.372926 0.992810 0.515764 -8.509665 -12.639105 -8.981955 -23.466307 -15.270148 0.000011 -59.787576 0.000003 0.000000 0.000000 0.000000 20.778528 2.372926 0.992810 0.436327 13.876419 11.373071 3.782512 0.535385 32.522895 -0.000003 30.979716 0.000003 0.000000 0.000000 0.000000 
-12.292856 12.364616 -71.736008 0.000000 0.000000 0.000000 -114.612705 24.917394 9.093691 -37.593542 7.503962 40.526999 58.386233 6.806101 4.821923 20.462712 1.542827 -10.438263 0.000000 0.000000 0.000000 -114.612705 24.917394 9.093691 -27.396106 4.910248 -21.842766 102.150848 -9.977732 -6.814585 23.238266 -0.236365 23.968029 0.000000 0.000000 0.000000 -114.612705 24.917394 9.093691 0.000001 -0.000001 0.000000 49.747474 10.915943 2.438300 19.813006 2.538002 0.647772 0.000000 0.000000 0.000000 19.912489 1.937058 0.895222 6.495166 0.264973 -2.706692 0.000000 0.000000 0.000000 19.912489 1.937058 0.895222 0.492900 -8.977884 -12.094582 -7.279191 -22.558959 -16.271208 -0.000017 -57.917689 -0.000000 0.000000 0.000000 0.000000 19.912489 1.937058 0.895222 0.434030 12.961603 11.430415 9.841227 6.566301 32.310124 0.000002 26.820063 0.000000 0.000000 0.000000 0.000000 
-12.375114 12.766193 -72.494598 0.000000 0.000000 0.000000 -118.175687 25.235773 9.385891 -35.837856 7.299957 42.354017 57.251633 6.710035 5.659847 19.405534 0.601740 -10.869292 0.000000 0.000000 0.000000 -118.175687 25.235773 9.385891 -24.295628 4.773919 -20.672013 102.111376 -10.043254 -7.672936 22.705712 0.127128 21.936901 0.000000 0.000000 0.000000 -118.175687 25.235773 9.385891 -0.000001 0.000000 0.000000 47.448122 9.429364 2.842987 18.672419 2.021791 0.335997 0.000000 0.000000 0.000000 18.753297 1.419704 0.614304 6.877229 0.266392 -2.548379 0.000000 0.000000 0.000000 18.753297 1.419704 0.614304 0.494902 -9.501258 -11.204263 -5.456346 -20.928034 -17.869885 0.000012 -56.422034 -0.000002 0.000000 0.000000 0.000000 18.753297 1.419704 0.614304 0.432188 11.644196 11.650085 15.569956 11.900511 32.210168 0.000000 24.382647 0.000002 0.000000 0.000000 0.000000 
-12.545551 13.210365 -73.233643 0.000000 0.000000 0.000000 -120.920112 25.612880 9.590427 -35.001605 7.069925 44.157911 56.283296 6.850711 6.297542 18.010027 -0.032704 -11.501528 0.000000 0.000000 0.000000 -120.920112 25.612880 9.590427 -22.361819 4.902472 -19.788964 102.666786 -9.996174 -8.169018 21.973982 1.168277 19.588769 0.000000 0.000000 0.000000 -120.920112 25.612880 9.590427 0.000001 0.000001 -0.000000 44.803746 7.468473 2.841741 17.311046 1.411746 -0.146461 0.000000 0.000000 0.000000 17.369907 0.817402 0.168536 7.139821 0.269601 -2.399113 0.000000 0.000000 0.000000 17.369907 0.817402 0.168536 0.538446 -9.973102 -9.961850 -3.179592 -18.500641 -19.681800 0.000041 -55.463725 0.000038 0.000000 0.000000 0.000000 17.369907 0.817402 0.168536 0.438117 10.094223 11.981958 21.216499 15.450171 31.864776 0.000001 25.231581 -0.000001 0.000000 0.000000 0.000000 
-12.791182 13.667259 -73.976990 0.000000 0.000000 0.000000 -122.805080 25.962425 9.780146 -34.883016 6.911094 45.790401 55.364229 7.191055 6.720643 16.481999 -0.492053 -12.487180 0.000000 0.000000 0.000000 -122.805080 25.962425 9.780146 -21.609721 5.324780 -19.124700 103.750854 -9.153127 -8.414721 21.325850 1.590501 17.573021 0.000000 0.000000 0.000000 -122.805080 25.962425 9.780146 0.000001 0.000001 -0.000000 42.042581 5.001828 2.453212 15.812095 0.684711 -0.737202 0.000000 0.000000 0.000000 15.846580 0.114611 -0.366273 7.170023 0.276581 -2.290369 0.000000 0.000000 0.000000 15.846580 0.114611 -0.366273 0.625796 -10.225545 -8.451717 -0.217565 -15.422692 -21.451570 0.000021 -55.057434 0.000028 0.000000 0.000000 0.000000 15.846580 0.114611 -0.366273 0.455642 8.552481 12.348845 26.845046 16.755350 30.963174 -0.000000 29.607651 0.000000 0.000000 0.000000 0.000000 
